# xmcd CD database file
#
# Track frame offsets:
#	150
#	35866
#	88334
#	133205
#	162386
#	201684
#
# Disc length: 3282 seconds
#
# Revision: 0
# Processed by: cddbd v1.4PL0 Copyright (c) Steve Scherf et al.
# Submitted via: CDex 1.50beta10
#
DISCID=610cd006
DTITLE=Archie Shepp-Mihaly Dresch Quartet - Hungarian BeBop
DYEAR=1900
DGENRE=Jazz
TTITLE0=Mihály Dresch Quartet and Archie Shepp - Lily of the valley
TTITLE1=Mihály Dresch Quartet and Archie Shepp - Búzai song (based on traditional folk tune)
TTITLE2=Mihály Dresch Quartet and Archie Shepp - I was beaten because
TTITLE3=Mihály Dresch Quartet and Archie Shepp - Steam
TTITLE4=Mihály Dresch Quartet and Archie Shepp - Sorrow, sorrow
TTITLE5=Mihály Dresch Quartet and Archie Shepp - Hungarian bebop
EXTD=
EXTT0=
EXTT1=
EXTT2=
EXTT3=
EXTT4=
EXTT5=
PLAYORDER=
